<svg xmlns="http://www.w3.org/2000/svg" viewBox="0 0 64 64">
<rect width="64" height="64" rx="14" fill="#102721"/>
<path d="M49 48.7c0 2.9-2.3 5.3-5.3 5.3H32V32h11.7c2.9 0 5.3 2.3 5.3 5.3v11.4Z" fill="#68c4ff"/>
<path d="M46.7 8C49.6 8 52 10.4 52 13.3v7.4c0 2.9-2.4 5.3-5.3 5.3h-7.4c-2.9 0-5.3-2.4-5.3-5.3v-7.4C34 10.4 36.4 8 39.3 8h7.4Z" fill="#0c79d8"/>
<path d="M24.7 34c2.9 0 5.3 2.4 5.3 5.3v7.4c0 2.9-2.4 5.3-5.3 5.3h-7.4c-2.9 0-5.3-2.4-5.3-5.3v-7.4c0-2.9 2.4-5.3 5.3-5.3h7.4Z" fill="#0c79d8"/>
<path d="M32 32H17.3C14.4 32 12 29.6 12 26.7V17.3c0-2.9 2.4-5.3 5.3-5.3h9.4c2.9 0 5.3 2.4 5.3 5.3V32Z" fill="#2e9eff"/>
</svg>